<?xml version="1.0" encoding="UTF-8"?>
<svg viewBox="0 0 38.5 48.988" xmlns="http://www.w3.org/2000/svg">
<defs>
<linearGradient id="a" x1="1" x2="0" y2="1">
<stop stop-color="#fa0" offset="0"/>
<stop stop-color="#ee0e9d" offset=".508"/>
<stop stop-color="#09f" offset="1"/>
</linearGradient>
</defs>
<g transform="translate(1.499 1.502)" data-name="376719901595156044">
<path transform="translate(-9228.5 17775)" d="M9233.8-17727.025a6.785,6.785,0,0,1-4.841-1.963,6.783,6.783,0,0,1-1.963-4.84v-35.377a6.777,6.777,0,0,1,1.963-4.84,6.79,6.79,0,0,1,4.841-1.969h30.073a1.5,1.5,0,0,1,1.5,1.5,1.5,1.5,0,0,1-1.5,1.5H9233.8a3.725,3.725,0,0,0-3.806,3.807,3.723,3.723,0,0,0,3.806,3.8h30.073a1.5,1.5,0,0,1,1.5,1.5v35.373a1.5,1.5,0,0,1-1.5,1.5Zm-3.806-6.8a3.723,3.723,0,0,0,3.806,3.8h28.569v-32.375h-12.92v19.725a1.505,1.505,0,0,1-.62,1.217,1.49,1.49,0,0,1-.878.281,1.411,1.411,0,0,1-.474-.076l-4.831-1.609-4.832,1.609a1.489,1.489,0,0,1-1.352-.205,1.5,1.5,0,0,1-.624-1.217v-19.725H9233.8a6.884,6.884,0,0,1-3.806-1.121Zm13.125-12.037,3.333,1.111v-17.645h-7.611v17.645l3.328-1.111a1.519,1.519,0,0,1,.476-.076A1.518,1.518,0,0,1,9243.124-17745.865Zm-9.783-22.3a1.5,1.5,0,0,1-1.5-1.5,1.5,1.5,0,0,1,1.5-1.5H9264a1.5,1.5,0,0,1,1.5,1.5,1.5,1.5,0,0,1-1.5,1.5Z" fill="url(#a)" data-name="Union 1"/>
</g>
</svg>
