<?xml version="1.0" encoding="UTF-8"?>
<svg viewBox="0 0 36.901 40.079" xmlns="http://www.w3.org/2000/svg">
<g transform="translate(-2 -.613)" fill="none" stroke="#f5ff00" stroke-linecap="round" stroke-linejoin="round" stroke-miterlimit="10" stroke-width="2" data-name="19434421701595501121">
<line transform="translate(3 39.693)" x2="28.057" data-name="Line 7"/>
<path transform="translate(.396 3.564)" d="M4,11v8.655A12.455,12.455,0,0,0,16.564,31.94,12.455,12.455,0,0,0,29.128,19.655V11Z" data-name="Path 560"/>
<path transform="translate(7.524 3.96)" d="m26.188 24.564a4.113 4.113 0 0 1-4.188-4.188v-4.188a4.2 4.2 0 0 1 4.188-4.188 4.2 4.2 0 0 1 4.188 4.188v4.188a4.113 4.113 0 0 1-4.188 4.188z" data-name="Path 561"/>
<path transform="translate(3.604)" d="m13.356 2a7.608 7.608 0 0 0 0 8.376" data-name="Path 562"/>
<path transform="translate(2.02)" d="m9.356 2a7.608 7.608 0 0 0 0 8.376" data-name="Path 563"/>
<path transform="translate(5.188)" d="m17.356 2a7.608 7.608 0 0 0 0 8.376" data-name="Path 564"/>
</g>
</svg>
