<?xml version="1.0" encoding="UTF-8"?>
<svg viewBox="0 0 36 32.744" xmlns="http://www.w3.org/2000/svg">
<path transform="translate(-6.5 -14.5)" d="M41.389,31.686H40.372A15.371,15.371,0,0,0,31.26,17.849h6.67v1.017a.61.61,0,1,0,1.221,0V15.61a.61.61,0,1,0-1.221,0v1.017H26.942V15.61a.61.61,0,0,0-.61-.61H23.076a.61.61,0,0,0-.61.61v1.017H11.477V15.61a.61.61,0,1,0-1.221,0v3.256a.61.61,0,1,0,1.221,0V17.849h6.65a15.628,15.628,0,0,0-9.5,14.244H7.61A.61.61,0,0,0,7,32.7v3.256a.61.61,0,0,0,.61.61h3.256a.61.61,0,0,0,.61-.61V32.7a.61.61,0,0,0-.61-.61H9.849A14.476,14.476,0,0,1,22.465,17.906v.96a.61.61,0,0,0,.61.61h1.05l-6.337,16.08a.611.611,0,0,0,0,.435l2.271,6.182-.037,3.956a.61.61,0,0,0,.61.615h7.733a.61.61,0,0,0,.61-.61v-3.94l2.772-6.166a.61.61,0,0,0,0-.476L25.281,19.477h1.05a.61.61,0,0,0,.61-.61v-.96a14.118,14.118,0,0,1,12.209,13.78H38.134a.61.61,0,0,0-.61.61v3.256a.61.61,0,0,0,.61.61h3.256a.61.61,0,0,0,.61-.61V32.3a.61.61,0,0,0-.61-.61ZM10.256,35.349H8.221V33.314h2.035ZM21.244,45.523l.024-2.849h6.487v2.849Zm6.727-4.07H21.094L19.01,35.788l5.083-12.9V33.924a.61.61,0,0,0,1.221,0V22.83l5.213,12.926Zm-2.251-23.2H23.686V16.221h2.035ZM40.779,34.942H38.744V32.907h2.035Z" fill="#f5ff00" stroke="#f5ff00" data-name="5283742831536556750"/>
</svg>
