<?xml version="1.0" encoding="UTF-8"?>
<svg viewBox="0 0 37.383 37" xmlns="http://www.w3.org/2000/svg">
<g transform="translate(-1.76 -1.9)" fill="none" stroke="#f5ff00" stroke-linecap="round" stroke-linejoin="round" stroke-miterlimit="10" stroke-width="2" data-name="3782943391595759944">
<circle transform="translate(3 2.9)" cx="17.5" cy="17.5" r="17.5" data-name="Ellipse 26"/>
<path transform="translate(2.396 2.739)" d="M18.054,11,10,16.638l3.087,9.128h9.933l3.087-9.128Z" data-name="Path 565"/>
<path transform="translate(6.504 2.088)" d="M22,17.02l5.369-2.685L28.712,9.1" data-name="Path 566"/>
<path transform="translate(3.081 .342)" d="M12,4l5.369,2.685V13.4" data-name="Path 567"/>
<line transform="translate(20 3.9)" x1="6" y2="3" data-name="Line 8"/>
<line transform="translate(33.873 16.423)" x2="3.893" y2="2.416" data-name="Line 9"/>
<path transform="translate(.65 2.122)" d="M11.612,16.985,6.242,14.3,4.9,9.2" data-name="Path 568"/>
<line transform="translate(3.134 16.423)" x1="3.759" y2="2.282" data-name="Line 10"/>
<path transform="translate(.787 6.504)" d="M5.3,23.879l6.309.805L14.294,22" data-name="Path 569"/>
<line transform="translate(12 30.9)" x1="3" y1="6" data-name="Line 11"/>
<path transform="translate(5.819 6.504)" d="M28.859,24.013l-6.175.671L20,22" data-name="Path 570"/>
<line transform="translate(26 30.9)" x2="3" y1="6" data-name="Line 12"/>
</g>
</svg>
