<?xml version="1.0" encoding="UTF-8"?>
<svg viewBox="0 0 78.837 45.988" xmlns="http://www.w3.org/2000/svg">
<defs>
<linearGradient id="a" x1="1" x2="0" y2="1">
<stop stop-color="#fa0" offset="0"/>
<stop stop-color="#ee0e9d" offset=".508"/>
<stop stop-color="#09f" offset="1"/>
</linearGradient>
</defs>
<path transform="translate(0 -10)" d="M73.91,26.424H72.267V23.14a4.927,4.927,0,0,0-4.927-4.927H64.055V14.927A4.927,4.927,0,0,0,59.128,10H54.2a4.927,4.927,0,0,0-4.927,4.927v11.5H29.564v-11.5A4.927,4.927,0,0,0,24.637,10H19.709a4.927,4.927,0,0,0-4.927,4.927v3.285H11.5A4.927,4.927,0,0,0,6.57,23.14v3.285H4.927A4.927,4.927,0,0,0,0,31.352v3.285a4.927,4.927,0,0,0,4.927,4.927H6.57v3.285A4.927,4.927,0,0,0,11.5,47.776h3.285v3.285a4.927,4.927,0,0,0,4.927,4.927h4.927a4.927,4.927,0,0,0,4.927-4.927v-11.5H49.273v11.5A4.927,4.927,0,0,0,54.2,55.988h4.927a4.927,4.927,0,0,0,4.927-4.927V47.776H67.34a4.927,4.927,0,0,0,4.927-4.927V39.564H73.91a4.927,4.927,0,0,0,4.927-4.927V31.352a4.927,4.927,0,0,0-4.927-4.927ZM4.927,36.279a1.642,1.642,0,0,1-1.642-1.642V31.352a1.642,1.642,0,0,1,1.642-1.642H6.57v6.57Zm6.57,8.212a1.642,1.642,0,0,1-1.642-1.642V23.14A1.642,1.642,0,0,1,11.5,21.5h3.285V44.491Zm14.782,6.57A1.642,1.642,0,0,1,24.637,52.7H19.709a1.642,1.642,0,0,1-1.642-1.642V14.927a1.642,1.642,0,0,1,1.642-1.642h4.927a1.642,1.642,0,0,1,1.642,1.642Zm3.285-14.782v-6.57H49.273v6.57ZM60.77,51.061A1.642,1.642,0,0,1,59.128,52.7H54.2a1.642,1.642,0,0,1-1.642-1.642V14.927A1.642,1.642,0,0,1,54.2,13.285h4.927a1.642,1.642,0,0,1,1.642,1.642Zm8.212-8.212a1.642,1.642,0,0,1-1.642,1.642H64.055V21.5H67.34a1.643,1.643,0,0,1,1.642,1.642Zm6.57-8.212a1.642,1.642,0,0,1-1.642,1.642H72.267v-6.57H73.91a1.642,1.642,0,0,1,1.642,1.642Z" fill="url(#a)" data-name="Path 579"/>
</svg>
