<?xml version="1.0" encoding="UTF-8"?>
<svg viewBox="0 0 36.605 37" xmlns="http://www.w3.org/2000/svg">
<g transform="translate(-3.586 -3)" fill="none" stroke="#f5ff00" stroke-linecap="round" stroke-linejoin="round" stroke-miterlimit="10" stroke-width="2" data-name="1695790271595759953">
<circle transform="translate(25.27 4)" cx="4.054" cy="4.054" r="4.054" data-name="Ellipse 27"/>
<path transform="translate(1.054 .808)" d="M8,11.3l3.784-3.784a4.242,4.242,0,0,1,5.946,0L28.405,18.192a4.135,4.135,0,0,0,5.54.27l3.784-3.108" data-name="Path 571"/>
<path transform="translate(2.258 2.108)" d="m18.958 10-6.351 6.351a4.186 4.186 0 0 0 1.351 6.757l5.27 2.027a3.955 3.955 0 0 1 2.572 3.649v8.108" data-name="Path 572"/>
<path transform="translate(0 5.27)" d="M17.162,20.351l-3.513,3.513a2.611,2.611,0,0,1-3.784,0L5,19" data-name="Path 573"/>
<line transform="translate(19.865 16.162)" x2="6.757" y1="6.757" data-name="Line 13"/>
</g>
</svg>
