<?xml version="1.0" encoding="UTF-8"?>
<svg viewBox="0 0 36 36" xmlns="http://www.w3.org/2000/svg">
<path transform="translate(-1.5 -1.5)" d="M19.5,2A17.5,17.5,0,1,0,37,19.5,17.52,17.52,0,0,0,19.5,2ZM35.366,18.662A15.9,15.9,0,0,1,20.34,3.633,15.9,15.9,0,0,1,35.366,18.662ZM3.634,20.346A15.9,15.9,0,0,1,18.663,35.368,15.907,15.907,0,0,1,3.634,20.346ZM20.253,35.37A17.492,17.492,0,0,0,3.629,18.747,15.9,15.9,0,0,1,18.727,3.63,17.522,17.522,0,0,0,35.37,20.274,15.9,15.9,0,0,1,20.253,35.37Z" fill="#f5ff00" stroke="#f5ff00" data-name="13082923451530272915"/>
</svg>
